<svg width="29" height="18" viewBox="0 0 29 18" fill="none" xmlns="http://www.w3.org/2000/svg">
<path d="M2.25581 17.928C0.751812 17.928 -0.000187755 17.12 -0.000187755 15.504C-0.000187755 14.208 0.455812 12.808 1.36781 11.304C1.70381 10.744 1.97581 10.464 2.18381 10.464C2.24781 10.464 2.27981 10.504 2.27981 10.584C2.27981 10.712 2.22381 10.856 2.11181 11.016C1.23181 12.424 0.791812 13.728 0.791812 14.928C0.791812 15.648 0.959812 16.232 1.29581 16.68C1.63181 17.144 2.09581 17.376 2.68781 17.376C3.96781 17.376 6.08781 16.312 9.04781 14.184C10.1518 13.384 11.2718 12.52 12.4078 11.592C13.5598 10.664 14.7198 9.664 15.8878 8.592L16.2718 8.256C16.6398 6.656 16.8238 5.304 16.8238 4.2C16.8238 3.176 16.6558 2.416 16.3198 1.92C15.9998 1.424 15.4158 1.176 14.5678 1.176C13.8638 1.176 13.1438 1.336 12.4078 1.656C11.6718 1.96 10.9678 2.376 10.2958 2.904C9.63981 3.416 9.07181 3.992 8.59181 4.632C7.58381 5.992 7.07981 7.312 7.07981 8.592C7.07981 9.792 7.54381 10.392 8.47181 10.392C8.98381 10.392 9.61581 10.16 10.3678 9.696C10.5918 9.552 10.6878 9.472 10.6558 9.456C10.6718 9.456 10.6798 9.464 10.6798 9.48C10.7118 9.512 10.6478 9.608 10.4878 9.768C9.84781 10.408 9.00781 10.728 7.96781 10.728C7.29581 10.728 6.77581 10.544 6.40781 10.176C6.03981 9.808 5.88781 9.296 5.95181 8.64C6.14381 6.512 7.20781 4.656 9.14381 3.072C10.9358 1.616 12.7758 0.888004 14.6638 0.888004C15.8158 0.888004 16.6478 1.2 17.1598 1.824C17.6718 2.432 17.9278 3.352 17.9278 4.584C17.9278 4.936 17.9038 5.312 17.8558 5.712C17.8078 6.096 17.7438 6.512 17.6638 6.96C18.5118 6.208 19.3598 5.488 20.2078 4.8C21.0718 4.096 21.9198 3.424 22.7518 2.784C24.7198 1.28 26.0398 0.432003 26.7118 0.240004C27.2558 0.0800037 27.6878 3.8147e-06 28.0078 3.8147e-06C28.2158 3.8147e-06 28.3998 0.0560036 28.5598 0.168003C28.7198 0.264003 28.7998 0.360003 28.7998 0.456004C28.7998 0.584003 28.5918 0.648003 28.1758 0.648003C27.1038 0.648003 25.1598 1.784 22.3438 4.056C21.4158 4.808 20.5358 5.56 19.7038 6.312C18.8718 7.048 18.1038 7.768 17.3998 8.472C17.2878 8.808 17.1198 9.36 16.8958 10.128C16.5438 11.392 16.2798 12.448 16.1038 13.296C15.9438 14.144 15.8638 14.784 15.8638 15.216C15.8638 15.68 15.9998 15.912 16.2718 15.912C16.9278 15.912 18.0798 15.096 19.7278 13.464C19.9998 13.192 20.1358 13.144 20.1358 13.32C20.1358 13.784 19.5358 14.464 18.3358 15.36C17.8558 15.712 17.3358 16.056 16.7758 16.392C16.2318 16.744 15.7598 16.92 15.3598 16.92C14.8318 16.92 14.5678 16.536 14.5678 15.768C14.5678 15.096 14.9358 13.392 15.6718 10.656L15.9358 9.6C14.1438 11.168 12.4718 12.52 10.9198 13.656C9.38381 14.792 7.95981 15.712 6.64781 16.416C4.80781 17.424 3.34381 17.928 2.25581 17.928Z" fill="#303030"/>
</svg>
