<svg width="29" height="18" viewBox="0 0 29 18" fill="none" xmlns="http://www.w3.org/2000/svg">
<path d="M2.25606 17.928C0.752056 17.928 5.6386e-05 17.12 5.6386e-05 15.504C5.6386e-05 14.208 0.456056 12.808 1.36806 11.304C1.70406 10.744 1.97606 10.464 2.18406 10.464C2.24806 10.464 2.28006 10.504 2.28006 10.584C2.28006 10.712 2.22406 10.856 2.11206 11.016C1.23206 12.424 0.792057 13.728 0.792057 14.928C0.792057 15.648 0.960057 16.232 1.29606 16.68C1.63206 17.144 2.09606 17.376 2.68806 17.376C3.96806 17.376 6.08806 16.312 9.04806 14.184C10.1521 13.384 11.2721 12.52 12.4081 11.592C13.5601 10.664 14.7201 9.664 15.8881 8.592L16.2721 8.256C16.6401 6.656 16.8241 5.304 16.8241 4.2C16.8241 3.176 16.6561 2.416 16.3201 1.92C16.0001 1.424 15.4161 1.176 14.5681 1.176C13.8641 1.176 13.1441 1.336 12.4081 1.656C11.6721 1.96 10.9681 2.376 10.2961 2.904C9.64006 3.416 9.07206 3.992 8.59206 4.632C7.58406 5.992 7.08006 7.312 7.08006 8.592C7.08006 9.792 7.54406 10.392 8.47206 10.392C8.98406 10.392 9.61606 10.16 10.3681 9.696C10.5921 9.552 10.6881 9.472 10.6561 9.456C10.6721 9.456 10.6801 9.464 10.6801 9.48C10.7121 9.512 10.6481 9.608 10.4881 9.768C9.84806 10.408 9.00806 10.728 7.96806 10.728C7.29606 10.728 6.77606 10.544 6.40806 10.176C6.04006 9.808 5.88806 9.296 5.95206 8.64C6.14406 6.512 7.20806 4.656 9.14406 3.072C10.9361 1.616 12.7761 0.888004 14.6641 0.888004C15.8161 0.888004 16.6481 1.2 17.1601 1.824C17.6721 2.432 17.9281 3.352 17.9281 4.584C17.9281 4.936 17.9041 5.312 17.8561 5.712C17.8081 6.096 17.7441 6.512 17.6641 6.96C18.5121 6.208 19.3601 5.488 20.2081 4.8C21.0721 4.096 21.9201 3.424 22.7521 2.784C24.7201 1.28 26.0401 0.432003 26.7121 0.240004C27.2561 0.0800037 27.6881 3.8147e-06 28.0081 3.8147e-06C28.2161 3.8147e-06 28.4001 0.0560036 28.5601 0.168003C28.7201 0.264003 28.8001 0.360003 28.8001 0.456004C28.8001 0.584003 28.5921 0.648003 28.1761 0.648003C27.1041 0.648003 25.1601 1.784 22.3441 4.056C21.4161 4.808 20.5361 5.56 19.7041 6.312C18.8721 7.048 18.1041 7.768 17.4001 8.472C17.2881 8.808 17.1201 9.36 16.8961 10.128C16.5441 11.392 16.2801 12.448 16.1041 13.296C15.9441 14.144 15.8641 14.784 15.8641 15.216C15.8641 15.68 16.0001 15.912 16.2721 15.912C16.9281 15.912 18.0801 15.096 19.7281 13.464C20.0001 13.192 20.1361 13.144 20.1361 13.32C20.1361 13.784 19.5361 14.464 18.3361 15.36C17.8561 15.712 17.3361 16.056 16.7761 16.392C16.2321 16.744 15.7601 16.92 15.3601 16.92C14.8321 16.92 14.5681 16.536 14.5681 15.768C14.5681 15.096 14.9361 13.392 15.6721 10.656L15.9361 9.6C14.1441 11.168 12.4721 12.52 10.9201 13.656C9.38406 14.792 7.96006 15.712 6.64806 16.416C4.80806 17.424 3.34406 17.928 2.25606 17.928Z" fill="black"/>
</svg>
