<svg width="22" height="14" viewBox="0 0 22 14" fill="none" xmlns="http://www.w3.org/2000/svg">
<path d="M1.69186 13.446C0.563859 13.446 -0.000140816 12.84 -0.000140816 11.628C-0.000140816 10.656 0.341859 9.606 1.02586 8.478C1.27786 8.058 1.48186 7.848 1.63786 7.848C1.68586 7.848 1.70986 7.878 1.70986 7.938C1.70986 8.034 1.66786 8.142 1.58386 8.262C0.923859 9.318 0.593859 10.296 0.593859 11.196C0.593859 11.736 0.719859 12.174 0.971859 12.51C1.22386 12.858 1.57186 13.032 2.01586 13.032C2.97586 13.032 4.56586 12.234 6.78586 10.638C7.61386 10.038 8.45386 9.39 9.30586 8.694C10.1699 7.998 11.0399 7.248 11.9159 6.444L12.2039 6.192C12.4799 4.992 12.6179 3.978 12.6179 3.15C12.6179 2.382 12.4919 1.812 12.2399 1.44C11.9999 1.068 11.5619 0.882002 10.9259 0.882002C10.3979 0.882002 9.85786 1.002 9.30586 1.242C8.75386 1.47 8.22586 1.782 7.72186 2.178C7.22986 2.562 6.80386 2.994 6.44386 3.474C5.68786 4.494 5.30986 5.484 5.30986 6.444C5.30986 7.344 5.65786 7.794 6.35386 7.794C6.73786 7.794 7.21186 7.62 7.77586 7.272C7.94386 7.164 8.01586 7.104 7.99186 7.092C8.00386 7.092 8.00986 7.098 8.00986 7.11C8.03386 7.134 7.98586 7.206 7.86586 7.326C7.38586 7.806 6.75586 8.046 5.97586 8.046C5.47186 8.046 5.08186 7.908 4.80586 7.632C4.52986 7.356 4.41586 6.972 4.46386 6.48C4.60786 4.884 5.40586 3.492 6.85786 2.304C8.20186 1.212 9.58186 0.666003 10.9979 0.666003C11.8619 0.666003 12.4859 0.900003 12.8699 1.368C13.2539 1.824 13.4459 2.514 13.4459 3.438C13.4459 3.702 13.4279 3.984 13.3919 4.284C13.3559 4.572 13.3079 4.884 13.2479 5.22C13.8839 4.656 14.5199 4.116 15.1559 3.6C15.8039 3.072 16.4399 2.568 17.0639 2.088C18.5399 0.960002 19.5299 0.324002 20.0339 0.180003C20.4419 0.0600028 20.7659 2.86102e-06 21.0059 2.86102e-06C21.1619 2.86102e-06 21.2999 0.0420027 21.4199 0.126002C21.5399 0.198002 21.5999 0.270002 21.5999 0.342003C21.5999 0.438002 21.4439 0.486002 21.1319 0.486002C20.3279 0.486002 18.8699 1.338 16.7579 3.042C16.0619 3.606 15.4019 4.17 14.7779 4.734C14.1539 5.286 13.5779 5.826 13.0499 6.354C12.9659 6.606 12.8399 7.02 12.6719 7.596C12.4079 8.544 12.2099 9.336 12.0779 9.972C11.9579 10.608 11.8979 11.088 11.8979 11.412C11.8979 11.76 11.9999 11.934 12.2039 11.934C12.6959 11.934 13.5599 11.322 14.7959 10.098C14.9999 9.894 15.1019 9.858 15.1019 9.99C15.1019 10.338 14.6519 10.848 13.7519 11.52C13.3919 11.784 13.0019 12.042 12.5819 12.294C12.1739 12.558 11.8199 12.69 11.5199 12.69C11.1239 12.69 10.9259 12.402 10.9259 11.826C10.9259 11.322 11.2019 10.044 11.7539 7.992L11.9519 7.2C10.6079 8.376 9.35386 9.39 8.18986 10.242C7.03786 11.094 5.96986 11.784 4.98586 12.312C3.60586 13.068 2.50786 13.446 1.69186 13.446Z" fill="white"/>
</svg>
